<svg xmlns="http://www.w3.org/2000/svg" viewBox="0 0 308.57998 308.57997"><circle cx="154.28999" cy="154.28999" r="154.28999" fill="#2c3e50"/><path fill="#fff" d="M154.88998 145.66999c-.03-1.26-.03-3.29.19-4.29 4.6-11.1 15.57-18.82 28.3-18.82h.41v58.3c0 .12-.03.78-.04.9-.54 16.46-14.01 29.7-30.59 29.7v27.08c21 0 39.17-11.27 49.29-28.07l.07-.11c2.9.45 5.86.75 8.9.75 31.95 0 57.81-26 57.81-57.81 0-30.87-24.37-56.46-55.1-57.81h-30.74c-17.18 0-32.61 7.64-43.22 19.63-10.59-11.92-25.86-19.59-43.02-19.59-31.86 0-57.77 25.91-57.77 57.77 0 31.86 25.91 57.77 57.77 57.77 31.86 0 57.77-25.91 57.77-57.77v-3.68c-.01.01-.02-3.31-.03-3.95zm-57.75 38.33c-16.92 0-30.69-13.77-30.69-30.69s13.77-30.69 30.69-30.69 30.69 13.77 30.69 30.69-13.77 30.69-30.69 30.69zm142.96-19.87c-4.33 11.64-15.57 19.9-28.7 19.9h-.54v-61.47h.54c13.13 0 24.37 8.26 28.7 19.9 1.35 3.25 2.03 6.91 2.03 10.83s-.67 7.59-2.03 10.84z"/></svg>