<svg xmlns="http://www.w3.org/2000/svg" viewBox="0 0 308.57998 405.21998"><path fill="#2c3e50" d="M259.58998 384.94999c.24 2.77.87 5.12 1.9 7.05 1.03 1.93 2.35 3.5 3.97 4.72 1.62 1.21 3.49 2.09 5.61 2.64 2.12.55 4.38.82 6.8.82 2.83 0 5.27-.35 7.33-1.04 2.06-.69 3.74-1.63 5.03-2.81 1.29-1.18 2.25-2.55 2.87-4.11.62-1.56.93-3.2.93-4.93 0-2.42-.56-4.38-1.68-5.88-1.12-1.5-2.58-2.73-4.37-3.68-1.8-.95-3.86-1.72-6.18-2.29-2.33-.58-4.71-1.14-7.15-1.69-2.44-.55-4.83-1.2-7.15-1.95-2.33-.75-4.39-1.76-6.18-3.03-1.8-1.27-3.25-2.9-4.37-4.89-1.12-1.99-1.68-4.51-1.68-7.57 0-2.13.46-4.21 1.37-6.23.91-2.02 2.27-3.81 4.06-5.37 1.79-1.56 4.05-2.8 6.75-3.72 2.71-.92 5.83-1.38 9.36-1.38 3.59 0 6.72.49 9.4 1.47 2.68.98 4.9 2.32 6.67 4.02 1.77 1.7 3.09 3.68 3.97 5.93.88 2.25 1.32 4.65 1.32 7.18h-5.74c0-2.37-.43-4.41-1.28-6.14-.85-1.73-2.02-3.14-3.49-4.24-1.47-1.1-3.15-1.9-5.03-2.42-1.88-.52-3.83-.78-5.83-.78-3.06 0-5.64.42-7.73 1.25-2.09.84-3.75 1.92-4.99 3.25-1.24 1.33-2.09 2.8-2.56 4.41-.47 1.62-.56 3.23-.26 4.85.35 2.02 1.18 3.63 2.47 4.85 1.29 1.21 2.88 2.21 4.77 2.99 1.88.78 3.96 1.42 6.23 1.9 2.27.49 4.58 1.01 6.93 1.56 2.35.55 4.64 1.2 6.84 1.95 2.21.75 4.16 1.76 5.87 3.03 1.71 1.27 3.08 2.9 4.11 4.89 1.03 1.99 1.55 4.49 1.55 7.49 0 5.77-2.03 10.24-6.09 13.41-4.06 3.17-9.77 4.76-17.13 4.76-3.3 0-6.36-.42-9.18-1.25-2.83-.84-5.27-2.11-7.33-3.81-2.06-1.7-3.66-3.81-4.81-6.32-1.15-2.51-1.72-5.47-1.72-8.87h5.82zm-73.65-12.46c0-4.56.63-8.83 1.9-12.81 1.26-3.98 3.13-7.46 5.61-10.43 2.47-2.97 5.53-5.32 9.18-7.05 3.65-1.73 7.86-2.6 12.63-2.6 4.95 0 9.29.85 13.03 2.55 3.74 1.7 6.86 4.04 9.36 7.01 2.5 2.97 4.39 6.46 5.65 10.47 1.27 4.01 1.9 8.29 1.9 12.85 0 4.5-.63 8.73-1.9 12.68-1.27 3.95-3.13 7.41-5.61 10.38-2.47 2.97-5.56 5.32-9.27 7.05-3.71 1.73-8.01 2.6-12.89 2.6-4.89 0-9.18-.87-12.89-2.6-3.71-1.73-6.8-4.08-9.27-7.05-2.47-2.97-4.33-6.43-5.56-10.38-1.25-3.94-1.87-8.17-1.87-12.67zm29.67 27.69c4.12 0 7.67-.76 10.64-2.29 2.97-1.53 5.42-3.56 7.33-6.1 1.91-2.54 3.33-5.48 4.24-8.83.91-3.35 1.37-6.84 1.37-10.47 0-4.33-.54-8.21-1.63-11.64-1.09-3.43-2.66-6.36-4.72-8.78-2.06-2.42-4.56-4.27-7.51-5.54-2.94-1.27-6.24-1.9-9.89-1.9-4.06 0-7.58.78-10.55 2.34-2.97 1.56-5.42 3.62-7.33 6.19-1.91 2.57-3.33 5.52-4.24 8.87-.91 3.35-1.37 6.84-1.37 10.47 0 3.69.46 7.21 1.37 10.56.91 3.35 2.32 6.29 4.24 8.83 1.91 2.54 4.36 4.56 7.33 6.06 2.97 1.49 6.54 2.23 10.72 2.23zm-81.41 3.38v-62.31h23.22c4.12 0 7.52.46 10.2 1.38 2.68.92 4.8 2.19 6.36 3.81 1.56 1.62 2.65 3.48 3.27 5.58.62 2.11.93 4.31.93 6.62 0 3.46-.72 6.32-2.16 8.57-1.44 2.25-3.31 4.02-5.61 5.32-2.3 1.3-4.9 2.21-7.82 2.73-2.91.52-5.84.78-8.79.78h-13.6v27.52zm19.78-32.54c2.83 0 5.36-.17 7.59-.52 2.24-.35 4.14-1 5.7-1.95 1.56-.95 2.77-2.25 3.62-3.89.85-1.64 1.28-3.79 1.28-6.45 0-3.92-1.31-6.89-3.93-8.91-2.62-2.02-6.79-3.03-12.5-3.03h-15.54v24.75zm-71 13.93c.23 2.77.87 5.12 1.9 7.05 1.03 1.93 2.35 3.5 3.97 4.72 1.62 1.21 3.49 2.09 5.61 2.64 2.12.55 4.38.82 6.8.82 2.83 0 5.27-.35 7.33-1.04 2.06-.69 3.74-1.63 5.03-2.81 1.29-1.18 2.25-2.55 2.87-4.11.62-1.56.93-3.2.93-4.93 0-2.42-.56-4.38-1.68-5.88-1.12-1.5-2.58-2.73-4.37-3.68-1.8-.95-3.86-1.72-6.18-2.29-2.33-.58-4.71-1.14-7.15-1.69-2.44-.55-4.83-1.2-7.15-1.95-2.33-.75-4.39-1.76-6.18-3.03-1.8-1.27-3.25-2.9-4.37-4.89-1.12-1.99-1.68-4.51-1.68-7.57 0-2.13.46-4.21 1.37-6.23.91-2.02 2.27-3.81 4.06-5.37 1.79-1.56 4.05-2.8 6.76-3.72 2.71-.92 5.83-1.38 9.36-1.38 3.59 0 6.72.49 9.4 1.47 2.68.98 4.9 2.32 6.67 4.02 1.77 1.7 3.09 3.68 3.97 5.93.88 2.25 1.32 4.65 1.32 7.18h-5.74c0-2.37-.43-4.41-1.28-6.14-.85-1.73-2.02-3.14-3.49-4.24-1.47-1.1-3.15-1.9-5.03-2.42-1.88-.52-3.83-.78-5.83-.78-3.06 0-5.64.42-7.73 1.25-2.09.84-3.75 1.92-4.99 3.25-1.24 1.33-2.09 2.8-2.56 4.41-.47 1.62-.56 3.23-.26 4.85.35 2.02 1.18 3.63 2.47 4.85 1.29 1.21 2.88 2.21 4.77 2.99 1.88.78 3.96 1.42 6.23 1.9 2.27.49 4.58 1.01 6.93 1.56 2.35.55 4.64 1.2 6.84 1.95 2.21.75 4.16 1.76 5.87 3.03 1.71 1.27 3.08 2.9 4.11 4.89 1.03 1.99 1.55 4.49 1.55 7.49 0 5.77-2.03 10.24-6.09 13.41-4.06 3.17-9.77 4.76-17.13 4.76-3.3 0-6.36-.42-9.18-1.25-2.83-.84-5.27-2.11-7.33-3.81-2.06-1.7-3.66-3.81-4.81-6.32-1.15-2.51-1.72-5.47-1.72-8.87h5.81zm-73.64-12.46c0-4.56.63-8.83 1.9-12.81 1.27-3.98 3.13-7.46 5.61-10.43 2.47-2.97 5.53-5.32 9.18-7.05 3.65-1.73 7.86-2.6 12.63-2.6 4.95 0 9.29.85 13.02 2.55 3.74 1.7 6.86 4.04 9.36 7.01 2.5 2.97 4.39 6.46 5.65 10.47 1.27 4.01 1.9 8.29 1.9 12.85 0 4.5-.63 8.73-1.9 12.68-1.27 3.95-3.13 7.41-5.61 10.38-2.47 2.97-5.56 5.32-9.27 7.05-3.71 1.73-8.01 2.6-12.89 2.6-4.89 0-9.18-.87-12.89-2.6-3.71-1.73-6.8-4.08-9.27-7.05-2.47-2.97-4.33-6.43-5.56-10.38-1.25-3.94-1.86-8.17-1.86-12.67zm29.67 27.69c4.12 0 7.67-.76 10.64-2.29 2.97-1.53 5.42-3.56 7.33-6.1 1.91-2.54 3.33-5.48 4.24-8.83.91-3.35 1.37-6.84 1.37-10.47 0-4.33-.54-8.21-1.63-11.64-1.09-3.43-2.66-6.36-4.72-8.78-2.06-2.42-4.56-4.27-7.51-5.54-2.94-1.27-6.24-1.9-9.89-1.9-4.06 0-7.58.78-10.55 2.34-2.97 1.56-5.42 3.62-7.33 6.19-1.91 2.57-3.33 5.52-4.24 8.87-.91 3.35-1.37 6.84-1.37 10.47 0 3.69.46 7.21 1.37 10.56.91 3.35 2.32 6.29 4.24 8.83 1.91 2.54 4.36 4.56 7.33 6.06 2.96 1.49 6.54 2.23 10.72 2.23z"/><circle cx="154.28999" cy="154.28999" r="154.28999" fill="#2c3e50"/><path fill="#fff" d="M154.88998 145.66999c-.03-1.26-.03-3.29.19-4.29 4.6-11.1 15.57-18.82 28.3-18.82h.41v58.3c0 .12-.03.78-.04.9-.54 16.46-14.01 29.7-30.59 29.7v27.08c21 0 39.17-11.27 49.29-28.07l.07-.11c2.9.45 5.86.75 8.9.75 31.95 0 57.81-26 57.81-57.81 0-30.87-24.37-56.46-55.1-57.81h-30.74c-17.18 0-32.61 7.64-43.22 19.63-10.59-11.92-25.86-19.59-43.02-19.59-31.86 0-57.77 25.91-57.77 57.77 0 31.86 25.91 57.77 57.77 57.77 31.86 0 57.77-25.91 57.77-57.77v-3.68c-.01.01-.02-3.31-.03-3.95zm-57.75 38.33c-16.92 0-30.69-13.77-30.69-30.69s13.77-30.69 30.69-30.69 30.69 13.77 30.69 30.69-13.77 30.69-30.69 30.69zm142.96-19.87c-4.33 11.64-15.57 19.9-28.7 19.9h-.54v-61.47h.54c13.13 0 24.37 8.26 28.7 19.9 1.35 3.25 2.03 6.91 2.03 10.83s-.67 7.59-2.03 10.84z"/></svg>