<?xml version="1.0" encoding="utf-8"?>
<!-- Generator: Adobe Illustrator 19.1.0, SVG Export Plug-In . SVG Version: 6.00 Build 0)  -->
<svg version="1.1" xmlns="http://www.w3.org/2000/svg" xmlns:xlink="http://www.w3.org/1999/xlink" x="0px" y="0px"
	 viewBox="0 0 64 64" style="enable-background:new 0 0 64 64;" xml:space="preserve">
<style type="text/css">
	.st0{fill:#C75C5C;}
	.st1{opacity:0.2;}
	.st2{fill:#231F20;}
	.st3{fill:#F5CF87;}
</style>
<g id="Layer_1">
	<g>
		<circle class="st0" cx="32" cy="32" r="32"/>
	</g>
	<g class="st1">
		<g>
			<path class="st2" d="M52.9,28.1c-0.3-1-1.1-1.6-2.1-1.8l-11.3-1.6l-5.1-10.3c-0.4-0.9-1.4-1.5-2.4-1.5s-1.9,0.6-2.4,1.5
				l-5.1,10.3l-11.3,1.6c-1,0.1-1.8,0.8-2.1,1.8c-0.3,1-0.1,2,0.7,2.7l8.2,8L18.1,50c-0.2,1,0.2,2,1,2.6c0.5,0.3,1,0.5,1.5,0.5
				c0.4,0,0.8-0.1,1.2-0.3L32,47.5l10.1,5.3c0.4,0.2,0.8,0.3,1.2,0.3c0.5,0,1.1-0.2,1.5-0.5c0.8-0.6,1.2-1.6,1-2.6L44,38.7l8.2-8
				C52.9,30.1,53.2,29,52.9,28.1z"/>
		</g>
	</g>
	<g>
		<g>
			<path class="st3" d="M52.9,26.1c-0.3-1-1.1-1.6-2.1-1.8l-11.3-1.6l-5.1-10.3c-0.4-0.9-1.4-1.5-2.4-1.5s-1.9,0.6-2.4,1.5
				l-5.1,10.3l-11.3,1.6c-1,0.1-1.8,0.8-2.1,1.8c-0.3,1-0.1,2,0.7,2.7l8.2,8L18.1,48c-0.2,1,0.2,2,1,2.6c0.5,0.3,1,0.5,1.5,0.5
				c0.4,0,0.8-0.1,1.2-0.3L32,45.5l10.1,5.3c0.4,0.2,0.8,0.3,1.2,0.3c0.5,0,1.1-0.2,1.5-0.5c0.8-0.6,1.2-1.6,1-2.6L44,36.7l8.2-8
				C52.9,28.1,53.2,27,52.9,26.1z"/>
		</g>
	</g>
</g>
<g id="Layer_2">
</g>
</svg>
