<?xml version="1.0" encoding="utf-8"?>
<!-- Generator: Adobe Illustrator 19.1.0, SVG Export Plug-In . SVG Version: 6.00 Build 0)  -->
<svg version="1.1" xmlns="http://www.w3.org/2000/svg" xmlns:xlink="http://www.w3.org/1999/xlink" x="0px" y="0px"
	 viewBox="0 0 64 64" style="enable-background:new 0 0 64 64;" xml:space="preserve">
<style type="text/css">
	.st0{fill:#76C2AF;}
	.st1{opacity:0.2;}
	.st2{fill:#231F20;}
	.st3{fill:#4F5D73;}
	.st4{fill:#FFFFFF;}
</style>
<g id="Layer_1">
	<g>
		<circle class="st0" cx="32" cy="32" r="32"/>
	</g>
	<g class="st1">
		<g>
			<path class="st2" d="M27.5,34c0,2.5,2,4.5,4.5,4.5s4.5-2,4.5-4.5s-2-4.5-4.5-4.5S27.5,31.5,27.5,34z"/>
		</g>
	</g>
	<g class="st1">
		<path class="st2" d="M53.9,32.6c0-0.5-0.5-1.1-1-1.3l-4.1-1.5c-0.5-0.2-1.1-0.8-1.3-1.3l-0.7-1.6c-0.2-0.5-0.2-1.3,0-1.8l1.9-3.9
			c0.2-0.5,0.1-1.2-0.2-1.6l-2-2c-0.4-0.4-1.2-0.5-1.6-0.2l-3.9,1.9c-0.5,0.2-1.3,0.2-1.8,0l-1.6-0.7c-0.5-0.2-1.1-0.8-1.3-1.3
			l-1.5-4.1c-0.2-0.5-0.8-1-1.3-1c0,0-0.6-0.1-1.4-0.1s-1.4,0.1-1.4,0.1c-0.5,0-1.1,0.5-1.3,1l-1.5,4.1c-0.2,0.5-0.8,1.1-1.3,1.3
			l-1.6,0.7c-0.5,0.2-1.3,0.2-1.8,0l-3.9-1.9c-0.5-0.2-1.2-0.1-1.6,0.2l-2,2c-0.4,0.4-0.5,1.2-0.2,1.6l1.9,3.9
			c0.2,0.5,0.2,1.3,0,1.8l-0.7,1.6c-0.2,0.5-0.8,1.1-1.3,1.3l-4.1,1.5c-0.5,0.2-1,0.8-1,1.3c0,0-0.1,0.6-0.1,1.4
			c0,0.8,0.1,1.4,0.1,1.4c0,0.5,0.5,1.1,1,1.3l4.1,1.5c0.5,0.2,1.1,0.8,1.3,1.3l0.7,1.6c0.2,0.5,0.2,1.3,0,1.8l-1.9,3.9
			c-0.2,0.5-0.1,1.2,0.2,1.6l2,2c0.4,0.4,1.2,0.5,1.6,0.2l3.9-1.9c0.5-0.2,1.3-0.2,1.8,0l1.6,0.7c0.5,0.2,1.1,0.8,1.3,1.3l1.5,4.1
			c0.2,0.5,0.8,1,1.3,1c0,0,0.6,0.1,1.4,0.1s1.4-0.1,1.4-0.1c0.5,0,1.1-0.5,1.3-1l1.5-4.1c0.2-0.5,0.8-1.1,1.3-1.3l1.6-0.7
			c0.5-0.2,1.3-0.2,1.8,0l3.9,1.9c0.5,0.2,1.2,0.1,1.6-0.2l2-2c0.4-0.4,0.5-1.2,0.2-1.6l-1.9-3.9c-0.2-0.5-0.2-1.3,0-1.8l0.7-1.6
			c0.2-0.5,0.8-1.1,1.3-1.3l4.1-1.5c0.5-0.2,1-0.8,1-1.3c0,0,0.1-0.6,0.1-1.4C54,33.2,53.9,32.6,53.9,32.6z M32,44
			c-5.5,0-10-4.5-10-10c0-5.5,4.5-10,10-10s10,4.5,10,10C42,39.5,37.5,44,32,44z"/>
	</g>
	<g>
		<g>
			<path class="st3" d="M27.5,32c0,2.5,2,4.5,4.5,4.5s4.5-2,4.5-4.5s-2-4.5-4.5-4.5S27.5,29.5,27.5,32z"/>
		</g>
	</g>
	<g>
		<path class="st4" d="M53.9,30.6c0-0.5-0.5-1.1-1-1.3l-4.1-1.5c-0.5-0.2-1.1-0.8-1.3-1.3l-0.7-1.6c-0.2-0.5-0.2-1.3,0-1.8l1.9-3.9
			c0.2-0.5,0.1-1.2-0.2-1.6l-2-2c-0.4-0.4-1.2-0.5-1.6-0.2l-3.9,1.9c-0.5,0.2-1.3,0.2-1.8,0l-1.6-0.7c-0.5-0.2-1.1-0.8-1.3-1.3
			l-1.5-4.1c-0.2-0.5-0.8-1-1.3-1c0,0-0.6-0.1-1.4-0.1s-1.4,0.1-1.4,0.1c-0.5,0-1.1,0.5-1.3,1l-1.5,4.1c-0.2,0.5-0.8,1.1-1.3,1.3
			l-1.6,0.7c-0.5,0.2-1.3,0.2-1.8,0l-3.9-1.9c-0.5-0.2-1.2-0.1-1.6,0.2l-2,2c-0.4,0.4-0.5,1.2-0.2,1.6l1.9,3.9
			c0.2,0.5,0.2,1.3,0,1.8l-0.7,1.6c-0.2,0.5-0.8,1.1-1.3,1.3l-4.1,1.5c-0.5,0.2-1,0.8-1,1.3c0,0-0.1,0.6-0.1,1.4
			c0,0.8,0.1,1.4,0.1,1.4c0,0.5,0.5,1.1,1,1.3l4.1,1.5c0.5,0.2,1.1,0.8,1.3,1.3l0.7,1.6c0.2,0.5,0.2,1.3,0,1.8l-1.9,3.9
			c-0.2,0.5-0.1,1.2,0.2,1.6l2,2c0.4,0.4,1.2,0.5,1.6,0.2l3.9-1.9c0.5-0.2,1.3-0.2,1.8,0l1.6,0.7c0.5,0.2,1.1,0.8,1.3,1.3l1.5,4.1
			c0.2,0.5,0.8,1,1.3,1c0,0,0.6,0.1,1.4,0.1s1.4-0.1,1.4-0.1c0.5,0,1.1-0.5,1.3-1l1.5-4.1c0.2-0.5,0.8-1.1,1.3-1.3l1.6-0.7
			c0.5-0.2,1.3-0.2,1.8,0l3.9,1.9c0.5,0.2,1.2,0.1,1.6-0.2l2-2c0.4-0.4,0.5-1.2,0.2-1.6l-1.9-3.9c-0.2-0.5-0.2-1.3,0-1.8l0.7-1.6
			c0.2-0.5,0.8-1.1,1.3-1.3l4.1-1.5c0.5-0.2,1-0.8,1-1.3c0,0,0.1-0.6,0.1-1.4C54,31.2,53.9,30.6,53.9,30.6z M32,42
			c-5.5,0-10-4.5-10-10c0-5.5,4.5-10,10-10s10,4.5,10,10C42,37.5,37.5,42,32,42z"/>
	</g>
</g>
<g id="Layer_2">
</g>
</svg>
