<?xml version="1.0" encoding="utf-8"?>
<!-- Generator: Adobe Illustrator 19.1.0, SVG Export Plug-In . SVG Version: 6.00 Build 0)  -->
<svg version="1.1" xmlns="http://www.w3.org/2000/svg" xmlns:xlink="http://www.w3.org/1999/xlink" x="0px" y="0px"
	 viewBox="0 0 64 64" style="enable-background:new 0 0 64 64;" xml:space="preserve">
<style type="text/css">
	.st0{fill:#C75C5C;}
	.st1{opacity:0.2;}
	.st2{fill:#231F20;}
	.st3{fill:#77B3D4;}
	.st4{fill:#FFFFFF;}
	.st5{fill:#76C2AF;}
	.st6{fill:#E0995E;}
	.st7{fill:#4F5D73;}
	.st8{fill:#E0E0D1;}
	.st9{fill:#F5CF87;}
</style>
<g id="Layer_1">
	<g>
		<circle class="st0" cx="32" cy="32" r="32"/>
	</g>
	<g>
		<g class="st1">
			<path class="st2" d="M49,26c-1.1,0-2-0.9-2-2v-3c0-1.1,0.9-2,2-2l0,0c1.1,0,2,0.9,2,2v3C51,25.1,50.1,26,49,26L49,26z"/>
		</g>
		<g class="st1">
			<path class="st2" d="M49,35c-1.1,0-2-0.9-2-2v-3c0-1.1,0.9-2,2-2l0,0c1.1,0,2,0.9,2,2v3C51,34.1,50.1,35,49,35L49,35z"/>
		</g>
		<g class="st1">
			<path class="st2" d="M49,44c-1.1,0-2-0.9-2-2v-3c0-1.1,0.9-2,2-2l0,0c1.1,0,2,0.9,2,2v3C51,43.1,50.1,44,49,44L49,44z"/>
		</g>
		<g>
			<path class="st3" d="M49,24c-1.1,0-2-0.9-2-2v-3c0-1.1,0.9-2,2-2l0,0c1.1,0,2,0.9,2,2v3C51,23.1,50.1,24,49,24L49,24z"/>
		</g>
		<g>
			<path class="st4" d="M49,33c-1.1,0-2-0.9-2-2v-3c0-1.1,0.9-2,2-2l0,0c1.1,0,2,0.9,2,2v3C51,32.1,50.1,33,49,33L49,33z"/>
		</g>
		<g>
			<path class="st5" d="M49,42c-1.1,0-2-0.9-2-2v-3c0-1.1,0.9-2,2-2l0,0c1.1,0,2,0.9,2,2v3C51,41.1,50.1,42,49,42L49,42z"/>
		</g>
		<g class="st1">
			<path class="st2" d="M49,50c0,2.2-1.8,4-4,4H21c-2.2,0-4-1.8-4-4V18c0-2.2,1.8-4,4-4h24c2.2,0,4,1.8,4,4V50z"/>
		</g>
		<g>
			<path class="st6" d="M48,48c0,2.2-1.8,4-4,4H20c-2.2,0-4-1.8-4-4V16c0-2.2,1.8-4,4-4h24c2.2,0,4,1.8,4,4V48z"/>
		</g>
		<g>
			<rect x="22" y="12" class="st7" width="3" height="40"/>
		</g>
		<g class="st1">
			<g>
				<path class="st2" d="M20,22c0,1.1-0.9,2-2,2h-3c-1.1,0-2-0.9-2-2l0,0c0-1.1,0.9-2,2-2h3C19.1,20,20,20.9,20,22L20,22z"/>
			</g>
			<g>
				<path class="st2" d="M20,30c0,1.1-0.9,2-2,2h-3c-1.1,0-2-0.9-2-2l0,0c0-1.1,0.9-2,2-2h3C19.1,28,20,28.9,20,30L20,30z"/>
			</g>
			<g>
				<path class="st2" d="M20,38c0,1.1-0.9,2-2,2h-3c-1.1,0-2-0.9-2-2l0,0c0-1.1,0.9-2,2-2h3C19.1,36,20,36.9,20,38L20,38z"/>
			</g>
			<g>
				<path class="st2" d="M20,46c0,1.1-0.9,2-2,2h-3c-1.1,0-2-0.9-2-2l0,0c0-1.1,0.9-2,2-2h3C19.1,44,20,44.9,20,46L20,46z"/>
			</g>
		</g>
		<g>
			<g>
				<path class="st8" d="M20,20c0,1.1-0.9,2-2,2h-3c-1.1,0-2-0.9-2-2l0,0c0-1.1,0.9-2,2-2h3C19.1,18,20,18.9,20,20L20,20z"/>
			</g>
			<g>
				<path class="st8" d="M20,28c0,1.1-0.9,2-2,2h-3c-1.1,0-2-0.9-2-2l0,0c0-1.1,0.9-2,2-2h3C19.1,26,20,26.9,20,28L20,28z"/>
			</g>
			<g>
				<path class="st8" d="M20,36c0,1.1-0.9,2-2,2h-3c-1.1,0-2-0.9-2-2l0,0c0-1.1,0.9-2,2-2h3C19.1,34,20,34.9,20,36L20,36z"/>
			</g>
			<g>
				<path class="st8" d="M20,44c0,1.1-0.9,2-2,2h-3c-1.1,0-2-0.9-2-2l0,0c0-1.1,0.9-2,2-2h3C19.1,42,20,42.9,20,44L20,44z"/>
			</g>
		</g>
		<g>
			<circle class="st9" cx="36" cy="27" r="4"/>
		</g>
		<g>
			<path class="st9" d="M42,39.3c0,3-2.7,2.7-6,2.7s-6,0.3-6-2.7c0-3,2.7-7.3,6-7.3S42,36.2,42,39.3z"/>
		</g>
	</g>
</g>
<g id="Layer_2">
</g>
</svg>
