<?xml version="1.0" encoding="utf-8"?>
<!-- Generator: Adobe Illustrator 19.1.0, SVG Export Plug-In . SVG Version: 6.00 Build 0)  -->
<svg version="1.1" xmlns="http://www.w3.org/2000/svg" xmlns:xlink="http://www.w3.org/1999/xlink" x="0px" y="0px"
	 viewBox="0 0 64 64" style="enable-background:new 0 0 64 64;" xml:space="preserve">
<style type="text/css">
	.st0{fill:#4F5D73;}
	.st1{opacity:0.2;}
	.st2{fill:#231F20;}
	.st3{fill:#FFFFFF;}
</style>
<g id="Layer_1">
	<g>
		<circle class="st0" cx="32" cy="32" r="32"/>
	</g>
	<g class="st1">
		<g>
			<path class="st2" d="M43.9,47.5c-3.8-1.7-5.2-4.2-5.6-6.5c2.8-2.2,4.9-5.8,6.1-9.6c1.2-1.6,2-3.2,2-4.6c0-1-0.3-1.6-1-2.2
				c-0.2-8.1-5.9-14.6-13-14.7c-0.1,0-0.1,0-0.2,0c0,0,0,0-0.1,0c-7.1,0-12.8,6.4-13.1,14.4c-0.9,0.5-1.4,1.3-1.4,2.5
				c0,1.6,1,3.6,2.7,5.4c1.2,3.3,3.1,6.4,5.5,8.4c-0.4,2.3-1.7,5-5.7,6.8c-2.2,0.9-6.1,1.8-7.8,2.6C16.6,55,24.9,58,31.9,58l0.1,0
				c0,0,0,0,0,0c7,0,15.3-3,19.7-7.8C50,49.3,46.1,48.5,43.9,47.5z"/>
		</g>
	</g>
	<g>
		<g>
			<path class="st3" d="M43.9,45.5c-3.8-1.7-5.2-4.2-5.6-6.5c2.8-2.2,4.9-5.8,6.1-9.6c1.2-1.6,2-3.2,2-4.6c0-1-0.3-1.6-1-2.2
				c-0.2-8.1-5.9-14.6-13-14.7c-0.1,0-0.1,0-0.2,0c0,0,0,0-0.1,0C25.1,8,19.4,14.4,19,22.4c-0.9,0.5-1.4,1.3-1.4,2.5
				c0,1.6,1,3.6,2.7,5.4c1.2,3.3,3.1,6.4,5.5,8.4c-0.4,2.3-1.7,5-5.7,6.8c-2.2,0.9-6.1,1.8-7.8,2.6C16.6,53,24.9,56,31.9,56l0.1,0
				c0,0,0,0,0,0c7,0,15.3-3,19.7-7.8C50,47.3,46.1,46.5,43.9,45.5z"/>
		</g>
	</g>
</g>
<g id="Layer_2">
</g>
</svg>
