<?xml version="1.0" encoding="utf-8"?>
<!-- Generator: Adobe Illustrator 19.1.0, SVG Export Plug-In . SVG Version: 6.00 Build 0)  -->
<svg version="1.1" xmlns="http://www.w3.org/2000/svg" xmlns:xlink="http://www.w3.org/1999/xlink" x="0px" y="0px"
	 viewBox="0 0 64 64" style="enable-background:new 0 0 64 64;" xml:space="preserve">
<style type="text/css">
	.st0{fill:#76C2AF;}
	.st1{opacity:0.2;}
	.st2{fill:#231F20;}
	.st3{fill:#E0E0D1;}
	.st4{fill:#C75C5C;}
	.st5{fill:#E0995E;}
	.st6{fill:#F5CF87;}
	.st7{fill:#4F5D73;}
	.st8{fill:#FFFFFF;}
</style>
<g id="Layer_1">
	<g>
		<circle class="st0" cx="31.8" cy="32" r="32"/>
	</g>
	<g>
		<g>
			<g class="st1">
				<path class="st2" d="M28,23v-9H15c-1.7,0-3,1.3-3,3v34c0,1.7,1.3,3,3,3h22c1.7,0,3-1.3,3-3V26h-9C29.3,26,28,24.7,28,23z"/>
			</g>
			<g>
				<path class="st3" d="M37,12h-9H15c-1.7,0-3,1.3-3,3v25v9c0,1.7,1.3,3,3,3h9h13c1.7,0,3-1.3,3-3V24v-9C40,13.3,38.7,12,37,12z"/>
			</g>
		</g>
		<g class="st1">
			<rect x="16" y="19" class="st2" width="10" height="2"/>
		</g>
		<g class="st1">
			<rect x="16" y="35" class="st2" width="20" height="2"/>
		</g>
		<g class="st1">
			<rect x="16" y="30" class="st2" width="20" height="2"/>
		</g>
		<g class="st1">
			<rect x="16" y="25" class="st2" width="20" height="2"/>
		</g>
		<g class="st1">
			<rect x="16" y="40" class="st2" width="20" height="2"/>
		</g>
		<g class="st1">
			<rect x="16" y="45" class="st2" width="20" height="2"/>
		</g>
	</g>
	<g class="st1">
		<path class="st2" d="M55.1,21.9l-7.1-7.1c-1.2-1.2-3.1-1.2-4.2,0l-3.5,3.5L39.6,19L23.3,35.3l-1.9,9.4l-0.9,4.7l4.7-0.9l9.4-1.9
			l16.3-16.3l0.7-0.7l3.5-3.5C56.3,24.9,56.3,23,55.1,21.9z"/>
	</g>
	<g>
		<path class="st4" d="M50.9,28.4c-1.2,1.2-3.1,1.2-4.2,0l-7.1-7.1c-1.2-1.2-1.2-3.1,0-4.2l4.2-4.2c1.2-1.2,3.1-1.2,4.2,0l7.1,7.1
			c1.2,1.2,1.2,3.1,0,4.2L50.9,28.4z"/>
	</g>
	<g>
		<rect x="31.2" y="14.3" transform="matrix(0.7071 0.7071 -0.7071 0.7071 28.331 -15.7696)" class="st5" width="4" height="24"/>
	</g>
	<g>
		<rect x="32.7" y="18.3" transform="matrix(0.7071 0.7071 -0.7071 0.7071 32.8665 -16.8198)" class="st6" width="8" height="26"/>
	</g>
	<g>
		<rect x="39.7" y="22.8" transform="matrix(0.7071 0.7071 -0.7071 0.7071 36.8162 -19.2843)" class="st5" width="4" height="24"/>
	</g>
	<g>
		<g>
			<polygon class="st7" points="20.5,47.5 25.2,46.6 21.4,42.8 			"/>
		</g>
		<g>
			<polygon class="st8" points="23.3,33.4 21.4,42.8 25.2,46.6 34.6,44.7 33.2,43.3 33.2,40.5 27.5,40.5 27.5,34.8 24.7,34.8 			"/>
		</g>
	</g>
</g>
<g id="Layer_2">
</g>
</svg>
