<?xml version="1.0" encoding="utf-8"?>
<!-- Generator: Adobe Illustrator 19.1.0, SVG Export Plug-In . SVG Version: 6.00 Build 0)  -->
<svg version="1.1" xmlns="http://www.w3.org/2000/svg" xmlns:xlink="http://www.w3.org/1999/xlink" x="0px" y="0px"
	 viewBox="0 0 64 64" style="enable-background:new 0 0 64 64;" xml:space="preserve">
<style type="text/css">
	.st0{fill:#77B3D4;}
	.st1{opacity:0.2;}
	.st2{fill:#231F20;}
	.st3{fill:#E0995E;}
	.st4{fill:#FFFFFF;}
	.st5{fill:#E0E0D1;}
	.st6{fill:#4F5D73;}
</style>
<g id="Layer_1">
	<g>
		<circle class="st0" cx="32" cy="32" r="32"/>
	</g>
	<g class="st1">
		<path class="st2" d="M48,14H16c-2.2,0-4,1.8-4,4v5.5V50c0,2.2,1.8,4,4,4h32c2.2,0,4-1.8,4-4V23.5V18C52,15.8,50.2,14,48,14z"/>
	</g>
	<g>
		<path class="st3" d="M48,12H16c-2.2,0-4,1.8-4,4v5.5V48c0,2.2,1.8,4,4,4h32c2.2,0,4-1.8,4-4V21.5V16C52,13.8,50.2,12,48,12z"/>
	</g>
	<g class="st1">
		<rect x="16" y="18" class="st2" width="32" height="32"/>
	</g>
	<g>
		<rect x="16" y="16" class="st4" width="32" height="32"/>
	</g>
	<g>
		<rect x="22" y="24" class="st5" width="20" height="2"/>
	</g>
	<g>
		<rect x="22" y="28" class="st5" width="20" height="2"/>
	</g>
	<g>
		<rect x="22" y="32" class="st5" width="20" height="2"/>
	</g>
	<g>
		<rect x="22" y="36" class="st5" width="20" height="2"/>
	</g>
	<g>
		<rect x="22" y="40" class="st5" width="20" height="2"/>
	</g>
	<g class="st1">
		<path class="st2" d="M37,12H27h-3v3v1v1c0,1.7,1.3,3,3,3h10c1.7,0,3-1.3,3-3v-1v-1v-3H37z"/>
	</g>
	<g>
		<path class="st6" d="M37,10H27h-3v3v1v1c0,1.7,1.3,3,3,3h10c1.7,0,3-1.3,3-3v-1v-1v-3H37z"/>
	</g>
</g>
<g id="Layer_2">
</g>
</svg>
