<?xml version="1.0" encoding="utf-8"?>
<!-- Generator: Adobe Illustrator 19.1.0, SVG Export Plug-In . SVG Version: 6.00 Build 0)  -->
<svg version="1.1" xmlns="http://www.w3.org/2000/svg" xmlns:xlink="http://www.w3.org/1999/xlink" x="0px" y="0px"
	 viewBox="0 0 64 64" style="enable-background:new 0 0 64 64;" xml:space="preserve">
<style type="text/css">
	.st0{fill:#4F5D73;}
	.st1{fill:#F5CF87;}
	.st2{opacity:0.2;}
	.st3{fill:#231F20;}
	.st4{fill:#E0995E;}
</style>
<g id="Layer_1">
	<g>
		<circle class="st0" cx="31.8" cy="32" r="32"/>
	</g>
	<g>
		<g>
			<rect x="24" y="16" class="st1" width="6" height="14"/>
		</g>
		<g>
			<rect x="24" y="34" class="st1" width="6" height="14"/>
		</g>
		<g>
			<rect x="34" y="16" class="st1" width="6" height="14"/>
		</g>
		<g>
			<rect x="34" y="34" class="st1" width="6" height="14"/>
		</g>
	</g>
	<g class="st2">
		<path class="st3" d="M40,14H24c-2.2,0-4,1.8-4,4v32c0,2.2,1.8,4,4,4h16c2.2,0,4-1.8,4-4V18C44,15.8,42.2,14,40,14z M30,50h-6V36h6
			V50z M30,32h-6V18h6V32z M40,50h-6V36h6V50z M40,32h-6V18h6V32z"/>
	</g>
	<g>
		<path class="st4" d="M40,12H24c-2.2,0-4,1.8-4,4v32c0,2.2,1.8,4,4,4h16c2.2,0,4-1.8,4-4V16C44,13.8,42.2,12,40,12z M30,48h-6V34h6
			V48z M30,30h-6V16h6V30z M40,48h-6V34h6V48z M40,30h-6V16h6V30z"/>
	</g>
	<g class="st2">
		<circle class="st3" cx="40" cy="34" r="3"/>
	</g>
	<g>
		<circle class="st1" cx="40" cy="32" r="3"/>
	</g>
</g>
<g id="Layer_2">
</g>
</svg>
