<?xml version="1.0" encoding="utf-8"?>
<!-- Generator: Adobe Illustrator 19.1.0, SVG Export Plug-In . SVG Version: 6.00 Build 0)  -->
<svg version="1.1" xmlns="http://www.w3.org/2000/svg" xmlns:xlink="http://www.w3.org/1999/xlink" x="0px" y="0px"
	 viewBox="0 0 64 64" style="enable-background:new 0 0 64 64;" xml:space="preserve">
<style type="text/css">
	.st0{fill:#E0E0D1;}
	.st1{opacity:0.2;}
	.st2{fill:#231F20;}
	.st3{fill:#C75C5C;}
	.st4{fill:#76C2AF;}
	.st5{fill:#4F5D73;}
</style>
<g id="Layer_1">
	<g>
		<circle class="st0" cx="32" cy="32" r="32"/>
	</g>
	<g class="st1">
		<path class="st2" d="M33.8,53.6c-1,0.6-2.5,0.6-3.5,0L12.7,43.1c-1-0.6-1-1.5,0-2.1l17.5-10.5c1-0.6,2.5-0.6,3.5,0l17.5,10.5
			c1,0.6,1,1.5,0,2.1L33.8,53.6z"/>
	</g>
	<g>
		<path class="st3" d="M33.8,51.6c-1,0.6-2.5,0.6-3.5,0L12.7,41.1c-1-0.6-1-1.5,0-2.1l17.5-10.5c1-0.6,2.5-0.6,3.5,0l17.5,10.5
			c1,0.6,1,1.5,0,2.1L33.8,51.6z"/>
	</g>
	<g class="st1">
		<path class="st2" d="M33.8,45.6c-1,0.6-2.5,0.6-3.5,0L12.7,35.1c-1-0.6-1-1.5,0-2.1l17.5-10.5c1-0.6,2.5-0.6,3.5,0l17.5,10.5
			c1,0.6,1,1.5,0,2.1L33.8,45.6z"/>
	</g>
	<g>
		<path class="st4" d="M33.8,43.6c-1,0.6-2.5,0.6-3.5,0L12.7,33.1c-1-0.6-1-1.5,0-2.1l17.5-10.5c1-0.6,2.5-0.6,3.5,0l17.5,10.5
			c1,0.6,1,1.5,0,2.1L33.8,43.6z"/>
	</g>
	<g class="st1">
		<path class="st2" d="M33.8,37.6c-1,0.6-2.5,0.6-3.5,0L12.7,27.1c-1-0.6-1-1.5,0-2.1l17.5-10.5c1-0.6,2.5-0.6,3.5,0l17.5,10.5
			c1,0.6,1,1.5,0,2.1L33.8,37.6z"/>
	</g>
	<g>
		<path class="st5" d="M33.8,35.6c-1,0.6-2.5,0.6-3.5,0L12.7,25.1c-1-0.6-1-1.5,0-2.1l17.5-10.5c1-0.6,2.5-0.6,3.5,0l17.5,10.5
			c1,0.6,1,1.5,0,2.1L33.8,35.6z"/>
	</g>
</g>
<g id="Layer_2">
</g>
</svg>
