<?xml version="1.0" encoding="utf-8"?>
<!-- Generator: Adobe Illustrator 19.1.0, SVG Export Plug-In . SVG Version: 6.00 Build 0)  -->
<svg version="1.1" id="Layer_1" xmlns="http://www.w3.org/2000/svg" xmlns:xlink="http://www.w3.org/1999/xlink" x="0px" y="0px"
	 viewBox="0 0 64 64" style="enable-background:new 0 0 64 64;" xml:space="preserve">
<style type="text/css">
	.st0{display:none;fill:#2B3544;}
	.st1{fill:#76C2AF;}
	.st2{opacity:0.2;fill:#231F20;}
	.st3{fill:#F5CF87;stroke:#F5CF87;stroke-width:2;stroke-linecap:round;stroke-linejoin:round;stroke-miterlimit:10;}
	.st4{fill:none;stroke:#FFFFFF;stroke-width:3;stroke-linecap:round;stroke-linejoin:round;stroke-miterlimit:10;}
	.st5{fill:#E0995E;stroke:#E0995E;stroke-width:2;stroke-linecap:round;stroke-linejoin:round;stroke-miterlimit:10;}
	.st6{fill:#F5CF87;stroke:#4F5D73;stroke-width:3;stroke-linecap:round;stroke-linejoin:round;stroke-miterlimit:10;}
</style>
<rect x="-391" y="-1597" class="st0" width="608" height="1984"/>
<circle class="st1" cx="32" cy="32" r="32"/>
<path class="st2" d="M48,42.4l-3-9.5c-0.2-0.5-0.7-0.8-1.3-0.7L34.9,35l7.1-4.4c0.5-0.3,0.6-0.9,0.3-1.4l-6.9-11
	c-0.3-0.5-0.9-0.6-1.4-0.3l-8.7,5.5L23.9,19c-0.7-2.1-3-4.8-6.9-3.6c-0.8,0.2-1.2,1.1-1,1.9c0.2,0.8,1.1,1.2,1.9,1
	c2.2-0.7,2.9,1.1,3.1,1.6l8,25.5c-2,1.3-3,3.8-2.2,6.2c0.7,2.3,2.8,3.9,5.2,3.9c0.6,0,1.1-0.1,1.6-0.3c1.4-0.4,2.5-1.4,3.2-2.7
	c0.4-0.8,0.6-1.8,0.6-2.7l8.3-2.6c0.8-0.2,1.2-1.1,1-1.9c-0.2-0.8-1.1-1.2-1.9-1L36.6,47l0,0l10.7-3.3c0.3-0.1,0.5-0.3,0.6-0.5
	S48,42.6,48,42.4z M30.4,36.4c-0.3,0.1-0.5,0.3-0.6,0.5s-0.1,0.5-0.1,0.8l2.2,6.9h0L27.3,30l3.8,6.1c0,0,0,0,0,0L30.4,36.4z"/>
<polygon class="st3" points="32,32.6 32,32.6 41.4,26.7 41.4,26.7 34.5,15.7 34.5,15.7 25.1,21.5 25.1,21.5 "/>
<path class="st4" d="M45.4,42.8L32,47l-9.5-30.5c0,0-1.2-3.8-5-2.6"/>
<polygon class="st5" points="33.6,43.9 33.6,43.9 47,39.7 47,39.7 44,30.1 44,30.1 30.7,34.3 30.7,34.3 "/>
<circle class="st6" cx="32" cy="47" r="4"/>
</svg>
