<?xml version="1.0" encoding="utf-8"?>
<!-- Generator: Adobe Illustrator 19.1.0, SVG Export Plug-In . SVG Version: 6.00 Build 0)  -->
<svg version="1.1" xmlns="http://www.w3.org/2000/svg" xmlns:xlink="http://www.w3.org/1999/xlink" x="0px" y="0px"
	 viewBox="0 0 64 64" style="enable-background:new 0 0 64 64;" xml:space="preserve">
<style type="text/css">
	.st0{fill:#4F5D73;}
	.st1{opacity:0.2;}
	.st2{fill:#231F20;}
	.st3{fill:#E0995E;}
	.st4{fill:#F5CF87;}
</style>
<g id="Layer_1">
	<g>
		<circle class="st0" cx="32" cy="32" r="32"/>
	</g>
	<g class="st1">
		<path class="st2" d="M52,45c0,2.2-1.8,4-4,4H16c-2.2,0-4-1.8-4-4V25c0-2.2,1.8-4,4-4h32c2.2,0,4,1.8,4,4V45z"/>
	</g>
	<g>
		<path class="st3" d="M38,16v20H26V16H38 M38,12H26c-2.2,0-4,1.8-4,4v20c0,2.2,1.8,4,4,4h12c2.2,0,4-1.8,4-4V16
			C42,13.8,40.2,12,38,12L38,12z"/>
	</g>
	<g>
		<g>
			<path class="st3" d="M12,28v15c0,2.2,1.8,4,4,4h32c2.2,0,4-1.8,4-4V28H12z"/>
		</g>
	</g>
	<g class="st1">
		<path class="st2" d="M52,25c0-2.2-1.8-4-4-4H16c-2.2,0-4,1.8-4,4v5h40V25z"/>
	</g>
	<g class="st1">
		<g>
			<path class="st2" d="M40,32c0,2.2-1.8,4-4,4h-8c-2.2,0-4-1.8-4-4v-3c0-2.2,1.8-4,4-4h8c2.2,0,4,1.8,4,4V32z"/>
		</g>
	</g>
	<g>
		<path class="st4" d="M36,27v3h-8v-3H36 M36,23h-8c-2.2,0-4,1.8-4,4v3c0,2.2,1.8,4,4,4h8c2.2,0,4-1.8,4-4v-3C40,24.8,38.2,23,36,23
			L36,23z"/>
	</g>
	<g>
		<path class="st3" d="M52,23c0-2.2-1.8-4-4-4H16c-2.2,0-4,1.8-4,4v5h40V23z"/>
	</g>
</g>
<g id="Layer_2">
</g>
</svg>
