<?xml version="1.0" encoding="utf-8"?>
<!-- Generator: Adobe Illustrator 19.1.0, SVG Export Plug-In . SVG Version: 6.00 Build 0)  -->
<svg version="1.1" xmlns="http://www.w3.org/2000/svg" xmlns:xlink="http://www.w3.org/1999/xlink" x="0px" y="0px"
	 viewBox="0 0 64 64" style="enable-background:new 0 0 64 64;" xml:space="preserve">
<style type="text/css">
	.st0{fill:#4F5D73;}
	.st1{opacity:0.2;}
	.st2{fill:#231F20;}
	.st3{fill:#76C2AF;}
	.st4{fill:#E0E0D1;}
</style>
<g id="Layer_1">
	<g>
		<circle class="st0" cx="32" cy="32" r="32"/>
	</g>
	<g>
		<g class="st1">
			<g>
				<path class="st2" d="M50,33.1c-2.2,0-4-1.8-4-4c0-0.4,0.1-0.7,0.1-1H21.9c0.1,0.3,0.1,0.7,0.1,1c0,2.2-1.8,4-4,4
					c-0.3,0-0.7-0.1-1-0.1v8.2c0.3-0.1,0.7-0.1,1-0.1c2.2,0,4,1.8,4,4c0,0.3-0.1,0.7-0.1,1h24.2c-0.1-0.3-0.1-0.7-0.1-1
					c0-2.2,1.8-4,4-4c0.4,0,0.7,0.1,1,0.1v-8.2C50.7,33,50.3,33.1,50,33.1z M34,43c-3.3,0-6-2.7-6-6s2.7-6,6-6s6,2.7,6,6
					S37.3,43,34,43z"/>
			</g>
			<g>
				<path class="st2" d="M50,25H18c-0.3,0-0.5,0-0.8,0.1c-1.8,0.4-3.2,2-3.2,3.9c0,0.1,0,0.2,0,0.3v15.3c0,0.1,0,0.2,0,0.3
					c0,2.2,1.8,4,4,4c0.1,0,0.2,0,0.3,0h31.3c0.1,0,0.2,0,0.3,0c2,0,3.6-1.4,3.9-3.2C54,45.5,54,45.3,54,45V29
					C54,26.8,52.2,25,50,25z M50,41c-2.2,0-4,1.8-4,4c0,0.3,0.1,0.7,0.1,1H21.9c0.1-0.3,0.1-0.7,0.1-1c0-2.2-1.8-4-4-4
					c-0.3,0-0.7,0.1-1,0.1v-8.2c0.3,0.1,0.7,0.1,1,0.1c2.2,0,4-1.8,4-4c0-0.4-0.1-0.7-0.1-1h24.2c-0.1,0.3-0.1,0.7-0.1,1
					c0,2.2,1.8,4,4,4c0.4,0,0.7-0.1,1-0.1v8.2C50.7,41,50.3,41,50,41z"/>
			</g>
			<g>
				<circle class="st2" cx="34" cy="37" r="6"/>
			</g>
		</g>
		<g>
			<g>
				<path class="st3" d="M18,46c-1.7,0-3-1.3-3-3V27c0-1.7,1.3-3,3-3h32c1.7,0,3,1.3,3,3v16c0,1.7-1.3,3-3,3H18z"/>
			</g>
			<g>
				<path class="st4" d="M50,25c1.1,0,2,0.9,2,2v16c0,1.1-0.9,2-2,2H18c-1.1,0-2-0.9-2-2V27c0-1.1,0.9-2,2-2H50 M50,23H18
					c-2.2,0-4,1.8-4,4v16c0,2.2,1.8,4,4,4h32c2.2,0,4-1.8,4-4V27C54,24.8,52.2,23,50,23L50,23z"/>
			</g>
		</g>
		<g>
			<circle class="st0" cx="34" cy="35" r="6"/>
		</g>
		<g>
			<circle class="st4" cx="50" cy="27" r="4"/>
		</g>
		<g>
			<circle class="st4" cx="18" cy="27" r="4"/>
		</g>
		<g>
			<circle class="st4" cx="50" cy="43" r="4"/>
		</g>
		<g>
			<circle class="st4" cx="18" cy="43" r="4"/>
		</g>
	</g>
	<g>
		<g class="st1">
			<g>
				<path class="st2" d="M48,29.1c-2.2,0-4-1.8-4-4c0-0.4,0.1-0.7,0.1-1H19.9c0.1,0.3,0.1,0.7,0.1,1c0,2.2-1.8,4-4,4
					c-0.3,0-0.7-0.1-1-0.1v8.2c0.3-0.1,0.7-0.1,1-0.1c2.2,0,4,1.8,4,4c0,0.3-0.1,0.7-0.1,1h24.2c-0.1-0.3-0.1-0.7-0.1-1
					c0-2.2,1.8-4,4-4c0.4,0,0.7,0.1,1,0.1v-8.2C48.7,29,48.3,29.1,48,29.1z M32,39c-3.3,0-6-2.7-6-6s2.7-6,6-6s6,2.7,6,6
					S35.3,39,32,39z"/>
			</g>
			<g>
				<path class="st2" d="M48,21H16c-0.3,0-0.5,0-0.8,0.1c-1.8,0.4-3.2,2-3.2,3.9c0,0.1,0,0.2,0,0.3v15.3c0,0.1,0,0.2,0,0.3
					c0,2.2,1.8,4,4,4c0.1,0,0.2,0,0.3,0h31.3c0.1,0,0.2,0,0.3,0c2,0,3.6-1.4,3.9-3.2C52,41.5,52,41.3,52,41V25
					C52,22.8,50.2,21,48,21z M48,37c-2.2,0-4,1.8-4,4c0,0.3,0.1,0.7,0.1,1H19.9c0.1-0.3,0.1-0.7,0.1-1c0-2.2-1.8-4-4-4
					c-0.3,0-0.7,0.1-1,0.1v-8.2c0.3,0.1,0.7,0.1,1,0.1c2.2,0,4-1.8,4-4c0-0.4-0.1-0.7-0.1-1h24.2c-0.1,0.3-0.1,0.7-0.1,1
					c0,2.2,1.8,4,4,4c0.4,0,0.7-0.1,1-0.1v8.2C48.7,37,48.3,37,48,37z"/>
			</g>
			<g>
				<circle class="st2" cx="32" cy="33" r="6"/>
			</g>
		</g>
		<g>
			<g>
				<path class="st3" d="M14,42c-1.7,0-3-1.3-3-3V23c0-1.7,1.3-3,3-3h32c1.7,0,3,1.3,3,3v16c0,1.7-1.3,3-3,3H14z"/>
			</g>
			<g>
				<path class="st4" d="M46,21c1.1,0,2,0.9,2,2v16c0,1.1-0.9,2-2,2H14c-1.1,0-2-0.9-2-2V23c0-1.1,0.9-2,2-2H46 M46,19H14
					c-2.2,0-4,1.8-4,4v16c0,2.2,1.8,4,4,4h32c2.2,0,4-1.8,4-4V23C50,20.8,48.2,19,46,19L46,19z"/>
			</g>
		</g>
		<g>
			<circle class="st0" cx="30" cy="31" r="6"/>
		</g>
		<g>
			<circle class="st4" cx="46" cy="23" r="4"/>
		</g>
		<g>
			<circle class="st4" cx="14" cy="23" r="4"/>
		</g>
		<g>
			<circle class="st4" cx="46" cy="39" r="4"/>
		</g>
		<g>
			<circle class="st4" cx="14" cy="39" r="4"/>
		</g>
	</g>
</g>
<g id="Layer_2">
</g>
</svg>
